<svg xmlns="http://www.w3.org/2000/svg" version="1.1" xmlns:xlink="http://www.w3.org/1999/xlink" width="1000" height="1000"><g clip-path="url(#SvgjsClipPath1003)"><rect width="1000" height="1000" fill="#ffffff"></rect><g transform="matrix(3.5,0,0,3.5,150,150)"><svg xmlns="http://www.w3.org/2000/svg" version="1.1" xmlns:xlink="http://www.w3.org/1999/xlink" width="200" height="200"><svg xmlns="http://www.w3.org/2000/svg" version="1.1" xmlns:xlink="http://www.w3.org/1999/xlink" viewBox="0 0 200 200"><rect width="200" height="200" fill="url('#gradient')"></rect><defs><linearGradient id="gradient" gradientTransform="rotate(45 0.5 0.5)"><stop offset="0%" stop-color="#91c993"></stop><stop offset="100%" stop-color="#3a4ca9"></stop></linearGradient><clipPath id="SvgjsClipPath1003"><rect width="1000" height="1000" x="0" y="0" rx="350" ry="350"></rect></clipPath></defs><g><g fill="#ffffff" transform="matrix(3.3399846508058326,0,0,3.3399846508058326,15.09767098220513,117.92022582191005)" stroke="#000000" stroke-width="0.15"><path d="M3.77-14.22L6.59-3.87L9.42-14.22L13.25-14.22L8.47 0L4.72 0L-0.03-14.22L3.77-14.22ZM23.95-5.36L23.95-5.21Q23.95-2.74 22.84-1.27Q21.73 0.20 19.84 0.20L19.84 0.20Q18.39 0.20 17.45-0.87L17.45-0.87L17.45 4.06L14.16 4.06L14.16-10.57L17.24-10.57L17.33-9.59Q18.28-10.76 19.82-10.76L19.82-10.76Q21.78-10.76 22.86-9.32Q23.95-7.88 23.95-5.36L23.95-5.36ZM20.65-5.06L20.65-5.41Q20.65-8.22 19.01-8.22L19.01-8.22Q17.84-8.22 17.45-7.38L17.45-7.38L17.45-3.22Q17.88-2.34 19.03-2.34L19.03-2.34Q20.61-2.34 20.65-5.06L20.65-5.06ZM28.87-15L28.87 0L25.57 0L25.57-15L28.87-15ZM40.14 0L36.85 0Q36.67-0.32 36.53-0.95L36.53-0.95Q35.63 0.20 33.99 0.20L33.99 0.20Q32.50 0.20 31.46-0.71Q30.41-1.61 30.41-2.98L30.41-2.98Q30.41-4.70 31.68-5.58Q32.95-6.46 35.37-6.46L35.37-6.46L36.39-6.46L36.39-7.01Q36.39-8.47 35.13-8.47L35.13-8.47Q33.96-8.47 33.96-7.31L33.96-7.31L30.66-7.31Q30.66-8.85 31.97-9.80Q33.27-10.76 35.29-10.76Q37.31-10.76 38.49-9.78Q39.66-8.79 39.69-7.07L39.69-7.07L39.69-2.39Q39.71-0.94 40.14-0.17L40.14-0.17L40.14 0ZM34.79-2.15L34.79-2.15Q35.40-2.15 35.81-2.41Q36.21-2.68 36.39-3.01L36.39-3.01L36.39-4.70L35.43-4.70Q33.71-4.70 33.71-3.15L33.71-3.15Q33.71-2.71 34.01-2.43Q34.32-2.15 34.79-2.15ZM43.92-10.57L45.59-4.61L47.34-10.57L50.87-10.57L46.56 1.77L46.38 2.22Q45.46 4.27 43.13 4.27L43.13 4.27Q42.49 4.27 41.78 4.07L41.78 4.07L41.78 1.72L42.21 1.72Q42.90 1.72 43.27 1.52Q43.63 1.32 43.81 0.80L43.81 0.80L44.07 0.10L40.40-10.57L43.92-10.57Z"></path></g></g></svg></svg></g></g></svg>